<?xml version="1.0" encoding="utf-8"?>
<!-- Generator: Adobe Illustrator 27.4.1, SVG Export Plug-In . SVG Version: 6.00 Build 0)  -->
<svg version="1.1" xmlns="http://www.w3.org/2000/svg" xmlns:xlink="http://www.w3.org/1999/xlink" x="0px" y="0px"
	 viewBox="0 0 256 256" style="enable-background:new 0 0 256 256;" xml:space="preserve">
<style type="text/css">
	.st0{fill:#FF7F29;stroke:#FF7F29;stroke-width:0.25;stroke-miterlimit:10;}
	.st1{fill:#FFFFFF;stroke:#FFFFFF;stroke-width:0.25;stroke-miterlimit:10;}
	.st2{fill:none;stroke:#FFFFFF;stroke-miterlimit:10;}
	.st3{display:none;}
	.st4{display:inline;opacity:0.35;fill:none;stroke:#000000;stroke-width:0.25;stroke-miterlimit:10;}
	.st5{display:inline;opacity:0.26;fill:none;stroke:#000000;stroke-width:0.25;stroke-miterlimit:10;}
	.st6{display:inline;fill:none;stroke:#000000;stroke-width:0.25;stroke-miterlimit:10;}
	.st7{display:inline;opacity:0.19;fill:none;stroke:#000000;stroke-width:0.25;stroke-miterlimit:10;}
	.st8{display:inline;}
	.st9{opacity:0.19;fill:none;stroke:#000000;stroke-width:0.25;stroke-miterlimit:10;}
</style>
<g id="Слой_6">
	<path class="st0" d="M245.84,159.35c-6.83,13.42-20.07,25.2-37.63,34.11c-12.97,6.59-28.32,11.61-45.17,14.55
		C151.93,209.96,140.17,211,128,211s-23.93-1.04-35.04-2.99c-16.85-2.94-32.2-7.96-45.17-14.55c-17.58-8.92-30.83-20.72-37.65-34.16
		c16.5,1.23,29.19,1.6,36.08,1c3.62-0.32,5.63-0.9,5.75-1.77c0.13-0.94-1.95-2.13-5.86-3.5c-7.44-2.61-21.52-5.87-39.84-9.29
		c9.44-6.45,23.14-12.05,39.83-16.36c0.2-12.22,0.69-23.97,1.44-35.06c0.24-3.77,0.52-7.46,0.84-11.07
		c0.4-4.75,0.85-9.35,1.35-13.79c0.16-0.02,0.32-0.04,0.47-0.05c0.65-18.14,6.7-31.75,16.03-33.2c9.21-1.44,19.02,9.39,25.19,26.13
		c0.51,1.39,1,2.82,1.46,4.29C104.03,66.22,115.81,66,128,66c12.27,0,24.14,0.22,35.35,0.64c0.36-1.14,0.73-2.25,1.11-3.34
		c6.15-17.34,16.17-28.66,25.58-27.19c7.15,1.12,12.39,9.4,14.73,21.39c0.4,2.87,0.78,5.83,1.14,8.88c0.08,1,0.13,2.03,0.16,3.06
		c0.07,0,0.13,0.01,0.2,0.02c0.5,4.44,0.95,9.04,1.35,13.79c0.32,3.61,0.6,7.3,0.84,11.07c0.75,11.09,1.24,22.84,1.44,35.06
		c16.72,4.31,30.43,9.92,39.87,16.39c-18.31,3.41-32.4,6.66-39.88,9.27c-3.97,1.39-6.08,2.59-5.95,3.53
		c0.12,0.88,2.16,1.47,5.84,1.79C216.69,160.94,229.37,160.57,245.84,159.35z"/>
</g>
<g id="Слой_7">
	<path class="st1" d="M183.08,136.37c-4.95-4.5-12.55-7.37-21.08-7.37s-16.13,2.87-21.08,7.37c2.7-7.4,11.12-12.79,21.08-12.79
		S180.38,128.97,183.08,136.37z"/>
	<path class="st1" d="M72.97,136.57c4.95-4.5,12.55-7.37,21.08-7.37s16.13,2.87,21.08,7.37c-2.7-7.4-11.12-12.79-21.08-12.79
		S75.67,129.17,72.97,136.57z"/>
</g>
<g id="Слой_8">
	<polygon class="st1" points="137,155 128,164 119,155 	"/>
	<path class="st2" d="M128,166.5c0,8.01-7.39,14.5-16.5,14.5S95,174.51,95,166.5"/>
	<path class="st2" d="M161,166.5c0,8.01-7.39,14.5-16.5,14.5s-16.5-6.49-16.5-14.5"/>
	<line class="st2" x1="128" y1="167" x2="128" y2="157"/>
	<rect x="73" y="152" class="st0" width="30" height="30"/>
	<rect x="153" y="155" class="st0" width="30" height="30"/>
</g>
<g id="Слой_3" class="st3">
	<line class="st4" x1="-5" y1="128" x2="261" y2="128"/>
	<line class="st4" x1="128" y1="14" x2="128" y2="256"/>
	<line class="st4" x1="-11" y1="136" x2="267" y2="136"/>
	<line class="st4" x1="2" y1="159" x2="254" y2="159"/>
	<rect x="128" y="123" class="st4" width="13" height="13"/>
	<rect x="115" y="123" class="st4" width="13" height="13"/>
	<rect x="128" y="151" class="st4" width="76" height="17"/>
	<rect x="52" y="151" class="st4" width="76" height="17"/>
	<rect x="93" y="57" class="st5" width="70" height="19"/>
	<line class="st6" x1="63" y1="36" x2="193" y2="36"/>
</g>
<g id="Слой_4" class="st3">
	<path class="st7" d="M210.89,156.58c-2.37,0.79-4.62,1.62-6.7,2.46c2.25,0.21,4.5,0.42,6.79,0.58c6.41,0.5,12.99,0.87,19.69,1.08
		c4.7,0.17,9.45,0.29,14.28,0.29c-3.41,5.7-7.91,11.07-13.36,16.03c-5.75,5.29-12.62,10.12-20.32,14.32c-2.75,1.54-5.66,3-8.62,4.37
		c-16.61,7.66-36.43,12.82-57.96,14.57c-5.45,0.46-11.03,0.71-16.7,0.71V65.32c1.37-0.04,2.75-0.04,4.16-0.04
		c10.74,0,21.11,0.46,31.02,1.33c0.79-2.12,1.58-4.16,2.41-6.12c6.62-15.45,14.46-23.99,22.77-24.36c6-0.26,12.56,2.78,15.11,10.28
		c2.7,21.41,2.42,21.95,2.87,27.19c0,0.12,0.04,0.29,0.04,0.46c0.17,1.79,0.33,3.62,0.46,5.45c1.37,16.03,2.46,32.89,3.21,50.46
		c2.87,0.75,5.7,1.62,8.45,2.5c3.37,1.08,6.66,2.21,9.87,3.46c8.33,3.04,15.99,6.54,22.9,10.37c0,0.17-0.04,0.29-0.12,0.46
		c-7.62,1.33-14.7,2.83-21.19,4.37C222.93,152.84,216.52,154.67,210.89,156.58z"/>
	<path class="st7" d="M45.11,155.11c2.37,0.79,4.62,1.62,6.7,2.46c-2.25,0.21-4.5,0.42-6.79,0.58c-6.41,0.5-12.99,0.87-19.69,1.08
		c-4.7,0.17-9.45,0.29-14.28,0.29c3.41,5.7,7.91,11.07,13.36,16.03c5.75,5.29,12.62,10.12,20.32,14.32c2.75,1.54,5.66,3,8.62,4.37
		c16.61,7.66,36.43,12.82,57.96,14.57c5.45,0.46,11.03,0.71,16.7,0.71V63.84c-1.37-0.04-2.75-0.04-4.16-0.04
		c-10.74,0-21.11,0.46-31.02,1.33c-0.79-2.12-1.58-4.16-2.41-6.12c-6.62-15.45-14.46-23.99-22.77-24.36
		c-6-0.26-12.56,2.78-15.11,10.28c-2.7,21.41-2.42,21.95-2.87,27.19c0,0.12-0.04,0.29-0.04,0.46c-0.17,1.79-0.33,3.62-0.46,5.45
		c-1.37,16.03-2.46,32.89-3.21,50.46c-2.87,0.75-5.7,1.62-8.45,2.5c-3.37,1.08-6.66,2.21-9.87,3.46
		c-8.33,3.04-15.99,6.54-22.9,10.37c0,0.17,0.04,0.29,0.12,0.46c7.62,1.33,14.7,2.83,21.19,4.37
		C33.07,151.36,39.48,153.19,45.11,155.11z"/>
	<path class="st7" d="M73.58,134.04c5.52-3.84,11.61-6.15,18.08-6.56c8.03-0.51,15.82,1.94,22.93,6.7
		c-2.97-7.85-11.81-13.23-21.85-12.6C83.86,122.15,76.52,127.22,73.58,134.04z"/>
	<g id="Слой_5" class="st8">
		<path class="st9" d="M182.42,135.52c-5.52-3.84-11.61-6.15-18.08-6.56c-8.03-0.51-15.82,1.94-22.93,6.7
			c2.97-7.85,11.81-13.23,21.85-12.6C172.14,123.63,179.48,128.7,182.42,135.52z"/>
	</g>
</g>
</svg>
